<?xml version="1.0" encoding="UTF-8"?>
<!DOCTYPE svg PUBLIC "-//W3C//DTD SVG 1.1//EN" "http://www.w3.org/Graphics/SVG/1.1/DTD/svg11.dtd">
<!-- Creator: CorelDRAW 2020 (64-Bit) -->
<svg xmlns="http://www.w3.org/2000/svg" xml:space="preserve" width="500px" height="707px" version="1.1" style="shape-rendering:geometricPrecision; text-rendering:geometricPrecision; image-rendering:optimizeQuality; fill-rule:evenodd; clip-rule:evenodd"
viewBox="0 0 500 707.14"
 xmlns:xlink="http://www.w3.org/1999/xlink"
 xmlns:xodm="http://www.corel.com/coreldraw/odm/2003">
 <defs>
  <style type="text/css">
   <![CDATA[
    .fil3 {fill:black}
    .fil0 {fill:#0083C9}
    .fil1 {fill:#00A0E3}
    .fil2 {fill:#5FC6F1}
   ]]>
  </style>
 </defs>
 <g id="Слой_x0020_1">
  <metadata id="CorelCorpID_0Corel-Layer"/>
  <g id="_1976602138608">
   <path class="fil0" d="M161.62 335.47l15.81 0c-3.71,-24.73 -25.04,-43.69 -50.8,-43.71l0 15.55c17.15,0.02 31.47,12.07 34.99,28.16z"/>
   <path class="fil1" d="M198.37 291.76c-0.02,19.79 -16.07,35.82 -35.86,35.82 -19.8,0 -35.84,-16.03 -35.87,-35.82l-15.54 0c0.02,28.37 23.03,51.37 51.41,51.37 28.38,0 51.39,-23 51.41,-51.37l-15.55 0z"/>
   <path class="fil2" d="M115.31 276.64c20.34,-1.56 52.43,9.18 61.96,27.87 1.06,-4.1 1.62,-8.38 1.62,-12.8 0,-31.18 -37.39,-51.43 -65.79,-51.43l-0.08 0 0 14.51c0.02,0 0.05,-0.01 0.08,-0.01 17.67,0.27 39.04,5.13 49.49,22.46 -9.25,-8.92 -30.14,-15.06 -49.45,-15.21l-0.09 0 0 14.81c0,0.3 0.07,0 0.09,0 0.73,0 1.45,-0.25 2.17,-0.2z"/>
   <polygon class="fil3" points="239.85,321.16 237.21,321.16 237.21,343.1 227.16,343.1 227.16,291.74 237.21,291.74 237.21,314.48 239.56,313.46 253.72,291.74 265.16,291.74 250.19,313.31 246.23,316.1 250.34,318.96 267.43,343.1 255.04,343.1 "/>
   <path class="fil3" d="M273.74 291.74l31.62 0 0 8.95 -21.56 0 0 10.71c0.83,-0.14 1.84,-0.29 3.04,-0.44 1.2,-0.14 2.38,-0.22 3.56,-0.22 2.74,0 5.25,0.27 7.55,0.81 2.3,0.54 4.27,1.43 5.91,2.68 1.64,1.25 2.92,2.88 3.85,4.91 0.93,2.03 1.39,4.52 1.39,7.45 0,2.89 -0.47,5.4 -1.43,7.56 -0.95,2.15 -2.32,3.93 -4.1,5.35 -1.79,1.42 -3.94,2.49 -6.46,3.23 -2.52,0.73 -5.34,1.1 -8.47,1.1 -0.84,0 -1.87,-0.03 -3.12,-0.07 -1.25,-0.05 -2.57,-0.13 -3.96,-0.22 -1.4,-0.1 -2.78,-0.22 -4.15,-0.37 -1.37,-0.15 -2.59,-0.34 -3.67,-0.59l0 -50.84zm15.63 43.65l0 0c1.27,0 2.46,-0.15 3.56,-0.47 1.1,-0.31 2.06,-0.79 2.9,-1.44 0.83,-0.64 1.49,-1.47 1.98,-2.48 0.49,-1.01 0.73,-2.24 0.73,-3.68 0,-1.73 -0.27,-3.12 -0.81,-4.18 -0.53,-1.05 -1.27,-1.88 -2.2,-2.48 -0.93,-0.6 -1.99,-1 -3.19,-1.19 -1.2,-0.19 -2.48,-0.29 -3.85,-0.29 -0.69,0 -1.54,0.06 -2.57,0.18 -1.02,0.12 -1.73,0.23 -2.12,0.32l0 15.35c0.53,0.15 1.35,0.24 2.45,0.29 1.1,0.05 2.14,0.07 3.12,0.07z"/>
   <path class="fil3" d="M345.69 300.69l-10.93 0c-0.2,4.65 -0.42,8.88 -0.66,12.69 -0.25,3.82 -0.58,7.26 -0.99,10.31 -0.42,3.06 -0.97,5.76 -1.66,8.11 -0.68,2.34 -1.56,4.37 -2.64,6.09 -0.68,1.12 -1.45,2.05 -2.31,2.78 -0.85,0.74 -1.75,1.33 -2.67,1.77 -0.93,0.44 -1.85,0.74 -2.76,0.91 -0.9,0.17 -1.74,0.26 -2.53,0.26 -1.12,0 -2.06,-0.09 -2.82,-0.26 -0.76,-0.17 -1.51,-0.43 -2.24,-0.77l1.1 -8.66c0.29,0.1 0.59,0.18 0.88,0.22 0.3,0.05 0.59,0.08 0.88,0.08 0.78,0 1.55,-0.2 2.31,-0.59 0.76,-0.39 1.41,-1.05 1.95,-1.98 0.73,-1.07 1.37,-2.65 1.91,-4.73 0.53,-2.08 1.01,-4.73 1.43,-7.96 0.41,-3.23 0.74,-7.08 0.99,-11.55 0.24,-4.48 0.41,-9.7 0.51,-15.67l30.3 0 0 51.36 -10.05 0 0 -42.41z"/>
  </g>
 </g>
</svg>
