<svg width="186" height="37" viewBox="0 0 186 37" fill="white" xmlns="http://www.w3.org/2000/svg">
<path d="M36.2312 11.8606C33.7101 11.8606 31.5028 12.7833 29.6796 14.6018C27.8888 16.3986 26.9854 18.5893 26.9854 21.12C26.9854 23.6561 27.8942 25.8577 29.6796 27.6545C31.4703 29.4406 33.6723 30.3471 36.2312 30.3471C38.7794 30.3471 40.9813 29.4352 42.7883 27.633C44.5736 25.7929 45.4771 23.6022 45.4771 21.12C45.4771 18.5893 44.5682 16.3986 42.7883 14.6072C41.0192 12.7833 38.8119 11.8606 36.2312 11.8606ZM40.1103 24.9403C39.0229 26.0249 37.7515 26.5538 36.2312 26.5538C34.7002 26.5538 33.4234 26.0249 32.336 24.9403C31.2593 23.8665 30.7346 22.5985 30.7346 21.0715C30.7346 19.5444 31.2593 18.2764 32.336 17.2026C33.4126 16.1288 34.684 15.6054 36.2312 15.6054C37.7677 15.6054 39.0337 16.1288 40.1103 17.2026C41.1869 18.2764 41.7117 19.5444 41.7117 21.0715C41.7117 22.5985 41.1869 23.8611 40.1103 24.9403Z"/>
<path d="M58.8021 18.9994H51.0061V12.1843H47.3164V29.9369H51.0061V22.674H58.8021V29.9369H62.4864V12.2005H58.8021V18.9994Z"/>
<path d="M78.5712 12.1521H64.8457V15.8321H69.8717V29.9371H73.5614V15.8321H78.5712V12.1521Z"/>
<path d="M110.632 18.9994H102.836V12.1843H99.1465V29.9369H102.836V22.674H110.632V29.9369H114.322V12.2005H110.632V18.9994Z"/>
<path d="M117.145 29.9369H120.834V15.8643H127.094V12.1843H117.145V29.9369Z"/>
<path d="M92.5556 12.1843V13.8679C91.0679 12.7617 89.3312 12.1843 87.3619 12.1843C84.9382 12.1843 82.8174 13.0693 81.07 14.8175C79.3496 16.5442 78.4785 18.6486 78.4785 21.0768C78.4785 23.5158 79.3496 25.6256 81.07 27.3523C82.7904 29.0682 84.9058 29.9369 87.3619 29.9369C89.315 29.9369 91.0516 29.3649 92.5556 28.2642V29.9369H96.2453V12.1843H92.5556ZM91.0408 24.6975C90.0075 25.7281 88.8064 26.2245 87.3619 26.2245C85.9066 26.2245 84.7001 25.7227 83.6668 24.6975C82.6443 23.6776 82.1466 22.4797 82.1466 21.0282C82.1466 19.5767 82.6443 18.3788 83.6668 17.359C84.6893 16.3392 85.8958 15.8427 87.3619 15.8427C88.8173 15.8427 90.0183 16.3392 91.0408 17.359C92.0633 18.3788 92.5611 19.5767 92.5611 21.0282C92.5556 22.4797 92.0633 23.6776 91.0408 24.6975Z"/>
<path d="M162.411 12.1843V13.8679C160.923 12.7617 159.187 12.1843 157.217 12.1843C154.794 12.1843 152.673 13.0693 150.925 14.8175C149.205 16.5442 148.334 18.6486 148.334 21.0768C148.334 23.5158 149.205 25.6256 150.925 27.3523C152.646 29.0682 154.761 29.9369 157.217 29.9369C159.17 29.9369 160.907 29.3649 162.411 28.2642V29.9369H166.101V12.1843H162.411ZM160.896 24.6975C159.863 25.7281 158.662 26.2245 157.217 26.2245C155.762 26.2245 154.556 25.7227 153.522 24.6975C152.5 23.6776 152.002 22.4797 152.002 21.0282C152.002 19.5767 152.5 18.3788 153.522 17.359C154.545 16.3392 155.751 15.8427 157.217 15.8427C158.673 15.8427 159.874 16.3392 160.896 17.359C161.919 18.3788 162.417 19.5767 162.417 21.0282C162.411 22.4797 161.913 23.6776 160.896 24.6975Z"/>
<path d="M144.699 14.8175C142.946 13.0693 140.831 12.1843 138.407 12.1843C136.438 12.1843 134.696 12.7563 133.213 13.8679V12.1843H129.523V37.0002H133.213V28.2642C134.717 29.3703 136.454 29.9369 138.407 29.9369C140.863 29.9369 142.978 29.0682 144.699 27.3523C146.419 25.6256 147.29 23.5158 147.29 21.0768C147.285 18.6486 146.414 16.5442 144.699 14.8175ZM142.097 24.6975C141.063 25.7281 139.857 26.2245 138.401 26.2245C136.957 26.2245 135.756 25.7227 134.723 24.6975C133.7 23.6776 133.202 22.4797 133.202 21.0282C133.202 19.5767 133.7 18.3788 134.723 17.359C135.745 16.3392 136.946 15.8427 138.401 15.8427C139.868 15.8427 141.074 16.3392 142.097 17.359C143.119 18.3788 143.617 19.5767 143.617 21.0282C143.611 22.4797 143.119 23.6776 142.097 24.6975Z"/>
<path d="M182.305 12.1844V13.8679C180.817 12.7617 179.08 12.1844 177.111 12.1844C174.687 12.1844 172.566 13.0693 170.819 14.8176C169.099 16.5443 168.228 18.6487 168.228 21.0768C168.228 23.5158 169.099 25.6256 170.819 27.3523C172.539 29.0682 174.655 29.9369 177.111 29.9369C179.048 29.9369 180.768 29.3758 182.267 28.2858C182.186 29.6078 181.699 30.7301 180.741 31.6852C179.681 32.7482 178.431 33.2608 176.938 33.2608C175.45 33.2608 174.211 32.7482 173.151 31.6852L170.532 34.313C172.296 36.0721 174.449 36.9624 176.938 36.9624C179.437 36.9624 181.591 36.0775 183.338 34.3346C185.085 32.5809 185.967 30.4388 185.973 27.9675L186 27.9513V12.179H182.305V12.1844ZM180.784 24.6975C179.751 25.7281 178.55 26.2245 177.106 26.2245C175.65 26.2245 174.444 25.7227 173.41 24.6975C172.388 23.6777 171.89 22.4797 171.89 21.0282C171.89 19.5767 172.388 18.3789 173.41 17.359C174.433 16.3392 175.639 15.8427 177.106 15.8427C178.561 15.8427 179.762 16.3392 180.784 17.359C181.807 18.3789 182.305 19.5767 182.305 21.0282C182.305 22.4797 181.807 23.6777 180.784 24.6975Z"/>
<path d="M12.7895 5.08838H10.9446V26.7098C9.21882 26.3807 7.71481 25.5605 6.37851 24.2331C4.60399 22.4633 3.73841 20.375 3.73841 17.8551C3.73841 15.346 4.60399 13.2524 6.37851 11.4609L6.38393 11.4555L3.76004 8.83852C3.75463 8.84392 3.75462 8.84393 3.7492 8.84933C1.26055 11.3315 0 14.3639 0 17.8551C0 21.3301 1.26055 24.3572 3.7492 26.8609C5.78341 28.8898 8.20175 30.0823 10.9393 30.4547V36.9945H14.6289V30.4547C17.3665 30.0877 19.7848 28.8898 21.819 26.8609C24.3077 24.3572 25.5682 21.3247 25.5682 17.8551C25.5682 14.3585 24.3077 11.3315 21.819 8.84933C19.3574 6.35641 16.3169 5.08838 12.7895 5.08838ZM19.2005 24.2331C17.8696 25.5605 16.3602 26.3807 14.6344 26.7098V9.00043C16.3548 9.32958 17.8588 10.1443 19.1951 11.4609C20.9696 13.2524 21.8352 15.346 21.8352 17.8551C21.8406 20.3804 20.975 22.4633 19.2005 24.2331Z"/>
<path d="M68.7622 0C69.4925 0 70.2229 0.156479 70.8451 0.469443V1.95873C70.3744 1.5918 69.6981 1.38679 69.0219 1.38679C67.7397 1.38679 66.4466 2.11523 66.4466 3.87431C66.4358 5.4769 67.7505 6.18378 69.0219 6.18378C69.7739 6.18378 70.4609 5.97328 70.8991 5.57937V7.10646C70.2716 7.40864 69.552 7.57591 68.7838 7.57591C66.8361 7.57591 64.8398 6.4104 64.8398 3.87431C64.8561 1.20332 66.8145 0 68.7622 0Z"/>
<path d="M74.5732 2.28784C76.0339 2.28784 77.3377 3.18357 77.3377 4.92646C77.3377 6.67474 76.0339 7.57048 74.5732 7.57048C73.1232 7.57048 71.8086 6.67474 71.8086 4.92646C71.8086 3.17818 73.1232 2.28784 74.5732 2.28784ZM74.5732 3.57748C73.7508 3.57748 73.291 4.16024 73.291 4.92646C73.291 5.69808 73.7508 6.28084 74.5732 6.28084C75.4063 6.28084 75.8662 5.69808 75.8662 4.92646C75.8662 4.16024 75.4063 3.57748 74.5732 3.57748Z"/>
<path d="M78.4902 7.42483V2.43359H81.4712C82.6614 2.43359 83.1213 3.08114 83.1213 3.75564C83.1213 4.32761 82.84 4.71071 82.3476 4.89957C82.8887 5.07764 83.2349 5.4715 83.2349 6.07585C83.2349 6.78271 82.8183 7.43023 81.5578 7.43023H78.4902V7.42483ZM79.9293 4.47867H81.033C81.3792 4.47867 81.6606 4.34373 81.6606 3.96062C81.6606 3.54513 81.3576 3.42103 81.0275 3.42103H79.9348V4.47867H79.9293ZM79.9401 6.4374H81.1304C81.4983 6.4374 81.7958 6.30251 81.7958 5.90861C81.7958 5.48233 81.482 5.35821 81.1304 5.35821H79.9401V6.4374Z"/>
<path d="M87.5355 2.28784C89.1207 2.28784 89.9755 3.56669 89.9755 4.92646C89.9755 6.29163 89.1207 7.57048 87.5355 7.57048C86.7457 7.57048 86.2101 7.24672 85.8855 6.89599V9.71265H84.4355V2.43354H85.7177V3.16198C86.0369 2.71412 86.6104 2.28784 87.5355 2.28784ZM87.1839 3.50193C86.5455 3.50193 86.0802 3.89585 85.8801 4.33292V5.52C86.0802 5.95707 86.5455 6.35099 87.1839 6.35099C88.0062 6.35099 88.4985 5.70347 88.4985 4.92646C88.4931 4.14945 88.0062 3.50193 87.1839 3.50193Z"/>
<path d="M93.4541 2.28784C95.5316 2.28784 96.197 3.92281 95.8616 5.3959H92.3396C92.5073 6.12435 93.2756 6.42654 94.1033 6.42654C94.6768 6.42654 95.1854 6.3132 95.6128 6.12434V7.25754C95.1421 7.45719 94.5253 7.57048 93.7787 7.57048C92.1936 7.57048 90.8789 6.66395 90.8789 4.92646C90.8789 3.04328 92.3288 2.28784 93.4541 2.28784ZM93.5028 3.38863C92.886 3.38863 92.345 3.77173 92.3234 4.45702H94.5523C94.6118 4.11707 94.4117 3.38863 93.5028 3.38863Z"/>
<path d="M97.084 7.42483V2.43359H98.4689L100.022 4.91031L101.585 2.43359H102.959V7.42483H101.564V4.48407L100.384 6.34564H99.6646L98.4852 4.48407V7.42483H97.084Z"/>
<path d="M106.698 2.28784C108.776 2.28784 109.441 3.92281 109.106 5.3959H105.584C105.751 6.12435 106.52 6.42654 107.347 6.42654C107.921 6.42654 108.429 6.3132 108.857 6.12434V7.25754C108.386 7.45719 107.769 7.57048 107.023 7.57048C105.438 7.57048 104.123 6.66395 104.123 4.92646C104.123 3.04328 105.573 2.28784 106.698 2.28784ZM106.752 3.38863C106.136 3.38863 105.595 3.77173 105.573 4.45702H107.802C107.856 4.11707 107.661 3.38863 106.752 3.38863Z"/>
<path d="M110.328 7.42483V2.43359H111.778V4.32757H113.801V2.43359H115.251V7.42483H113.801V5.53085H111.778V7.42483H110.328Z"/>
<path d="M116.68 7.42483V2.43359H118.13V4.32757H120.153V2.43359H121.603V7.42483H120.153V5.53085H118.13V7.42483H116.68Z"/>
<path d="M125.519 2.28784C126.98 2.28784 128.284 3.18357 128.284 4.92646C128.284 6.67474 126.98 7.57048 125.519 7.57048C124.07 7.57048 122.755 6.67474 122.755 4.92646C122.76 3.17818 124.075 2.28784 125.519 2.28784ZM125.519 3.57748C124.697 3.57748 124.237 4.16024 124.237 4.92646C124.237 5.69808 124.697 6.28084 125.519 6.28084C126.353 6.28084 126.812 5.69808 126.812 4.92646C126.812 4.16024 126.358 3.57748 125.519 3.57748Z"/>
<path d="M131.757 2.28784C133.834 2.28784 134.5 3.92281 134.164 5.3959H130.642C130.81 6.12435 131.578 6.42654 132.406 6.42654C132.98 6.42654 133.488 6.3132 133.915 6.12434V7.25754C133.445 7.45719 132.828 7.57048 132.081 7.57048C130.496 7.57048 129.182 6.66395 129.182 4.92646C129.182 3.04328 130.632 2.28784 131.757 2.28784ZM131.811 3.38863C131.194 3.38863 130.653 3.77173 130.632 4.45702H132.861C132.915 4.11707 132.714 3.38863 131.811 3.38863Z"/>
<path d="M137.877 7.42483V2.43359H139.327V4.32757H141.35V2.43359H142.8V7.42483H141.35V5.53085H139.327V7.42483H137.877Z"/>
<path d="M146.408 7.57048C144.812 7.57048 143.957 6.29163 143.957 4.92646C143.957 3.56669 144.812 2.28784 146.408 2.28784C147.328 2.28784 147.901 2.71412 148.22 3.16198V2.43354H149.492V7.42478H148.22V6.69634C147.896 7.1442 147.322 7.57048 146.408 7.57048ZM146.749 6.35099C147.387 6.35099 147.852 5.95707 148.052 5.52V4.33292C147.852 3.89585 147.387 3.50193 146.749 3.50193C145.926 3.50193 145.434 4.14945 145.434 4.92646C145.439 5.70887 145.926 6.35099 146.749 6.35099Z"/>
<path d="M153.457 2.2771C154.009 2.2771 154.55 2.40123 154.999 2.63865V3.90668C154.642 3.68005 154.144 3.53439 153.663 3.53439C152.873 3.53439 152.11 3.91748 152.11 4.92652C152.11 5.8816 152.862 6.31871 153.641 6.31871C154.172 6.31871 154.686 6.17299 155.048 5.95176V7.23059C154.556 7.44103 153.993 7.56514 153.36 7.56514C151.997 7.56514 150.628 6.77193 150.628 4.99667C150.633 3.08651 152.072 2.2771 153.457 2.2771Z"/>
<path d="M159.966 7.42483L158.683 3.96062L157.401 7.42483H155.859L157.926 2.43359H159.446L161.513 7.42483H159.966Z"/>
<path d="M164.511 2.28784C166.588 2.28784 167.254 3.92281 166.918 5.3959H163.396C163.564 6.12435 164.332 6.42654 165.16 6.42654C165.733 6.42654 166.242 6.3132 166.669 6.12434V7.25754C166.199 7.45719 165.582 7.57048 164.835 7.57048C163.25 7.57048 161.936 6.66395 161.936 4.92646C161.936 3.04328 163.38 2.28784 164.511 2.28784ZM164.559 3.38863C163.943 3.38863 163.402 3.77173 163.38 4.45702H165.609C165.669 4.11707 165.468 3.38863 164.559 3.38863Z"/>
<path d="M170.321 2.28784C171.241 2.28784 171.814 2.71412 172.133 3.16198V2.43354H173.405V7.28988C173.405 9.19464 171.998 9.85835 170.527 9.85835C169.742 9.85835 169.017 9.68029 168.411 9.38891V8.12087C168.974 8.45542 169.65 8.63886 170.343 8.63886C171.23 8.63886 171.971 8.33668 171.971 7.34923V6.89059C171.646 7.24672 171.116 7.56508 170.321 7.56508C168.725 7.56508 167.87 6.28623 167.87 4.92106C167.87 3.56668 168.725 2.28784 170.321 2.28784ZM170.667 3.50193C169.845 3.50193 169.352 4.14945 169.352 4.92646C169.352 5.70887 169.839 6.35099 170.667 6.35099C171.306 6.35099 171.771 5.96789 171.971 5.55241V4.33832C171.771 3.89586 171.3 3.50193 170.667 3.50193Z"/>
<path d="M174.838 7.42483V2.43359H176.288V5.23952L178.517 2.43359H179.766V7.42483H178.327V4.61897L176.098 7.42483H174.838Z"/>
<path d="M183.505 2.28784C185.582 2.28784 186.248 3.92281 185.912 5.3959H182.39C182.558 6.12435 183.326 6.42654 184.154 6.42654C184.728 6.42654 185.236 6.3132 185.664 6.12434V7.25754C185.193 7.45719 184.576 7.57048 183.83 7.57048C182.244 7.57048 180.93 6.66395 180.93 4.92646C180.93 3.04328 182.374 2.28784 183.505 2.28784ZM183.554 3.38863C182.937 3.38863 182.396 3.77173 182.374 4.45702H184.603C184.657 4.11707 184.462 3.38863 183.554 3.38863Z"/>
</svg>
